{"title":"Rise.of.the.Planet.of.the.Apes.2011.BRRIP.1080P.H264-ZEKTORM","uid":6846093,"size":4656465977,"categoryP":"video","categoryS":"hd___movies","magnet":"?xt=urn:btih:db17eb076c2669d24116c34c0c744d0eb914ce53&amp;dn=Rise.of.the.Planet.of.the.Apes.2011.BRRIP.1080P.H264-ZEKTORM&amp;tr=udp%3A%2F%2Ftracker.openbittorrent.com%3A80&amp;tr=udp%3A%2F%2Fopen.demonii.com%3A1337&amp;tr=udp%3A%2F%2Ftracker.coppersurfer.tk%3A6969&amp;tr=udp%3A%2F%2Fexodus.desync.com%3A6969","seeders":0,"leechers":1,"uploader":"blowley","files":5,"time":1322349877,"description":"Title                            : Rise of the Planet of the Apes\nYear                             : 2011\nGenre                            : Action | Drama | Sci-F\niMDB URL                         : http://www.imdb.com/title/tt1318514/\n\nComplete name                    : Rise.of.the.Planet.of.the.Apes.2011.BRRIP.1080P.H264-ZEKTORM.mp4\nFormat                           : MPEG-4\nFormat profile                   : Base Media\nCodec ID                         : isom\nFile size                        : 4.34 GiB\nDuration                         : 1h 44mn\nOverall bit rate                 : 5916 Kbps\nSubtitles                        : English (Format: srt)\n\nVideo\nID                               : 1\nFormat                           : AVC\nFormat/Info                      : Advanced Video Codec\nFormat profile                   : &lt;a class=&quot;__cf_email__&quot; href=&quot;/cdn-cgi/l/email-protection&quot; data-cfemail=&quot;91d9f8f6f9d1dda5bfa0&quot;&gt;[email&amp;#160;protected]&lt;/a&gt;&lt;script cf-hash='f9e31' type=&quot;text/javascript&quot;&gt;\n/* &lt;![CDATA[ */!function(){try{var t=&quot;currentScript&quot;in document?document.currentScript:function(){for(var t=document.getElementsByTagName(&quot;script&quot;),e=t.length;e--;)if(t[e].getAttribute(&quot;cf-hash&quot;))return t[e]}();if(t&amp;&amp;t.previousSibling){var e,r,n,i,c=t.previousSibling,a=c.getAttribute(&quot;data-cfemail&quot;);if(a){for(e=&quot;&quot;,r=parseInt(a.substr(0,2),16),n=2;a.length-n;n+=2)i=parseInt(a.substr(n,2),16)^r,e+=String.fromCharCode(i);e=document.createTextNode(e),c.parentNode.replaceChild(e,c)}}}catch(u){}}();/* ]]&gt; */&lt;/script&gt;\nFormat settings, CABAC           : Yes\nFormat settings, ReFrames        : 5 frames\nCodec ID                         : avc1\nCodec ID/Info                    : Advanced Video Coding\nDuration                         : 1h 44mn\nBit rate mode                    : Variable\nBit rate                         : 5468 Kbps\nWidth                            : 1920 pixels\nHeight                           : 816 pixels\nDisplay aspect ratio             : 2.35\nFrame rate mode                  : Constant\nFrame rate                       : 23.976 fps\nResolution                       : 24 bits\nColorimetry                      : 4:2:0\nScan type                        : Progressive\nBits/(Pixel*Frame)               : 0.146\nStream size                      : 4.01 GiB (92%)\nTitle                            : Video\nWriting library                  : x264\n\nAudio\nID                               : 2\nFormat                           : AAC\nFormat/Info                      : Advanced Audio Codec\nFormat version                   : Version 4\nFormat profile                   : LC\nFormat settings, SBR             : No\nCodec ID                         : 40\nDuration                         : 1h 44mn\nBit rate mode                    : Variable\nBit rate                         : 444 Kbps\nMaximum bit rate                 : 537 Kbps\nChannel(s)                       : 6 channels\nChannel positions                : Front: L C R, Rear: L R, LFE\nSampling rate                    : 48.0 KHz\nResolution                       : 16 bits\nStream size                      : 333 MiB (7%)\nLanguage                         : English\n\n\nScreenshots:\n &lt;a href=&quot;\nhttp://img855.imageshack.us/img855/8279/snaprotpota1.png&quot; rel=&quot;nofollow&quot; target=&quot;_NEW&quot;&gt;\nhttp://img855.imageshack.us/img855/8279/snaprotpota1.png&lt;/a&gt;\n &lt;a href=&quot;\nhttp://img834.imageshack.us/img834/8126/snaprotpota2.png&quot; rel=&quot;nofollow&quot; target=&quot;_NEW&quot;&gt;\nhttp://img834.imageshack.us/img834/8126/snaprotpota2.png&lt;/a&gt;\n &lt;a href=&quot;\nhttp://img829.imageshack.us/img829/8809/snaprotpota3.png&quot; rel=&quot;nofollow&quot; target=&quot;_NEW&quot;&gt;\nhttp://img829.imageshack.us/img829/8809/snaprotpota3.png&lt;/a&gt;\n &lt;a href=&quot;\nhttp://img705.imageshack.us/img705/1763/snaprotpota4.png&quot; rel=&quot;nofollow&quot; target=&quot;_NEW&quot;&gt;\nhttp://img705.imageshack.us/img705/1763/snaprotpota4.png&lt;/a&gt;\n","torrent":{"xt":"urn:btih:db17eb076c2669d24116c34c0c744d0eb914ce53","amp;dn":"Rise.of.the.Planet.of.the.Apes.2011.BRRIP.1080P.H264-ZEKTORM","amp;tr":["udp%3A%2F%2Ftracker.openbittorrent.com%3A80","udp%3A%2F%2Fopen.demonii.com%3A1337","udp%3A%2F%2Ftracker.coppersurfer.tk%3A6969","udp%3A%2F%2Fexodus.desync.com%3A6969"],"infoHash":"db17eb076c2669d24116c34c0c744d0eb914ce53","infoHashBuffer":{"type":"Buffer","data":[219,23,235,7,108,38,105,210,65,22,195,76,12,116,77,14,185,20,206,83]},"announce":[],"urlList":[]}}